<svg xmlns="http://www.w3.org/2000/svg" viewBox="0 0 16 16" fill="currentColor">
  <path d="M3 1.5A1.5 1.5 0 0 1 4.5 0h5.293a1 1 0 0 1 .707.293l2.207 2.207a1 1 0 0 1 .293.707V7.2a5.5 5.5 0 0 0-1-.185V3.5H10a1 1 0 0 1-1-1V1H4.5a.5.5 0 0 0-.5.5v13a.5.5 0 0 0 .5.5H8.2c.2.37.44.713.715 1.023l-.015-.023H4.5A1.5 1.5 0 0 1 3 14.5v-13Zm7 1V1l2 2h-1.5a.5.5 0 0 1-.5-.5Z"/>
  <path d="M11.5 8a4.5 4.5 0 1 0 0 9 4.5 4.5 0 0 0 0-9Zm0 1.5a3 3 0 1 1 0 6 3 3 0 0 1 0-6Zm0 1.25a1.75 1.75 0 1 0 0 3.5 1.75 1.75 0 0 0 0-3.5Z"/>
</svg>
