<svg xmlns="http://www.w3.org/2000/svg" viewBox="0 0 16 16" fill="currentColor">
  <!-- 文件底座 -->
  <path d="M3 1.5A1.5 1.5 0 0 1 4.5 0h5.293a1 1 0 0 1 .707.293l2.207 2.207a1 1 0 0 1 .293.707V14.5a1.5 1.5 0 0 1-1.5 1.5h-7A1.5 1.5 0 0 1 3 14.5v-13Z"/>
  <!-- 顶部折叠角 -->
  <path d="M10 0v3.5a.5.5 0 0 0 .5.5H14.5L10 0Z" fill-opacity="0.4"/>
  <!-- 数据线条 -->
  <rect x="4" y="5" width="6" height="1" rx="0.5" fill="white"/>
  <rect x="4" y="7.5" width="8" height="1" rx="0.5" fill="white"/>
  <rect x="4" y="10" width="5" height="1" rx="0.5" fill="white"/>
  <rect x="4" y="12.5" width="7" height="1" rx="0.5" fill="white"/>
</svg>
